<svg xmlns="http://www.w3.org/2000/svg" viewBox="0 0 24 24" width="36" height="36" fill="none" stroke="#ffae51" stroke-width="1" stroke-linecap="round" stroke-linejoin="round">&lt;!--!  Atomicons Free 1.00 by @atisalab License - https://atomicons.com/license/ (Icons: CC BY 4.0) Copyright 2021 Atomicons --&gt;<path d="M3.8,12.2,7.88,9.69a2,2,0,0,0,.93-2l-.56-4A2,2,0,0,0,6.27,2H4A2,2,0,0,0,2,4V5A17,17,0,0,0,19,22h1a2,2,0,0,0,2-2V17.73a2,2,0,0,0-1.72-2l-4-.56a2,2,0,0,0-2,.93L11.8,20.2"></path></svg>