<svg xmlns="http://www.w3.org/2000/svg" viewBox="0 0 24 24" width="36" height="36" fill="none" stroke="#000000" stroke-width="1" stroke-linecap="round" stroke-linejoin="round">&lt;!--!  Atomicons Free 1.00 by @atisalab License - https://atomicons.com/license/ (Icons: CC BY 4.0) Copyright 2021 Atomicons --&gt;<rect x="2" y="13" width="20" height="8" rx="2"></rect><line x1="17.99" y1="17" x2="18" y2="17" stroke-linecap="round" stroke-width="1.5"></line><line x1="14" y1="17" x2="14.01" y2="17" stroke-linecap="round" stroke-width="1.5"></line><path d="M22,13.2V19a2,2,0,0,1-2,2H4a2,2,0,0,1-2-2V13.2a1.67,1.67,0,0,1,0-.39l1.64-8.2A2,2,0,0,1,5.64,3H18.36a2,2,0,0,1,2,1.61L22,12.81A1.67,1.67,0,0,1,22,13.2Z"></path></svg>