<svg id="visual" viewBox="0 0 1920 200" width="1920" height="200" xmlns="http://www.w3.org/2000/svg" xmlns:xlink="http://www.w3.org/1999/xlink" version="1.1"><path d="M0 85L40 92.7C80 100.3 160 115.7 240 117.5C320 119.3 400 107.7 480 100C560 92.3 640 88.7 720 94.3C800 100 880 115 960 111.5C1040 108 1120 86 1200 72.7C1280 59.3 1360 54.7 1440 64.2C1520 73.7 1600 97.3 1680 112.3C1760 127.3 1840 133.7 1880 136.8L1920 140L1920 201L1880 201C1840 201 1760 201 1680 201C1600 201 1520 201 1440 201C1360 201 1280 201 1200 201C1120 201 1040 201 960 201C880 201 800 201 720 201C640 201 560 201 480 201C400 201 320 201 240 201C160 201 80 201 40 201L0 201Z" fill="#fff" stroke-linecap="round" stroke-linejoin="miter"></path></svg>