<svg xmlns="http://www.w3.org/2000/svg" viewBox="0 0 24 24" width="36" height="36" fill="none" stroke="#000000" stroke-width="1" stroke-linecap="square" stroke-linejoin="miter">&lt;!--!  Atomicons Free 1.00 by @atisalab License - https://atomicons.com/license/ (Icons: CC BY 4.0) Copyright 2021 Atomicons --&gt;<path d="M22,8V19a2,2,0,0,1-2,2H4a2,2,0,0,1-2-2V8A2,2,0,0,1,4,6H6.46a1,1,0,0,0,.84-.45L8.41,3.89A2,2,0,0,1,10.07,3h3.86a2,2,0,0,1,1.66.89L16.7,5.55a1,1,0,0,0,.84.45H20A2,2,0,0,1,22,8Z"></path><circle cx="12" cy="13" r="4"></circle></svg>