<svg xmlns="http://www.w3.org/2000/svg" viewBox="0 0 24 24" width="36" height="36" fill="none" stroke="#000000" stroke-width="1" stroke-linecap="round" stroke-linejoin="round">&lt;!--!  Atomicons Free 1.00 by @atisalab License - https://atomicons.com/license/ (Icons: CC BY 4.0) Copyright 2021 Atomicons --&gt;<path d="M21.94,9.38A6.57,6.57,0,0,1,15.45,15a6.69,6.69,0,0,1-1.91-.3l-7,7a2,2,0,0,1-2.82,0L2.29,20.29a2,2,0,0,1,0-2.82l7-7A6,6,0,0,1,9,9a6.57,6.57,0,0,1,5.59-6.93,6.49,6.49,0,0,1,3.73.6L14,7l3,3,4.34-4.34A6.44,6.44,0,0,1,21.94,9.38Z" fill="#06d7ea" opacity="0.1"></path><path d="M21.94,9.38A6.57,6.57,0,0,1,15.45,15a6.69,6.69,0,0,1-1.91-.3l-7,7a2,2,0,0,1-2.82,0L2.29,20.29a2,2,0,0,1,0-2.82l7-7A6,6,0,0,1,9,9a6.57,6.57,0,0,1,5.59-6.93,6.49,6.49,0,0,1,3.73.6L14,7l3,3,4.34-4.34A6.44,6.44,0,0,1,21.94,9.38Z"></path></svg>