<svg xmlns="http://www.w3.org/2000/svg" viewBox="0 0 24 24" width="36" height="36" fill="none" stroke="#000000" stroke-width="1" stroke-linecap="round" stroke-linejoin="round">&lt;!--!  Atomicons Free 1.00 by @atisalab License - https://atomicons.com/license/ (Icons: CC BY 4.0) Copyright 2021 Atomicons --&gt;<rect x="2" y="3" width="20" height="4" rx="2"></rect><path d="M4,7H20a0,0,0,0,1,0,0V19a2,2,0,0,1-2,2H6a2,2,0,0,1-2-2V7A0,0,0,0,1,4,7Z"></path><path d="M4,7H20a0,0,0,0,1,0,0V19a2,2,0,0,1-2,2H6a2,2,0,0,1-2-2V7A0,0,0,0,1,4,7Z" fill="#00deff" opacity="0.1"></path><line x1="8" y1="11" x2="16" y2="11"></line></svg>